<svg xmlns="http://www.w3.org/2000/svg" width="14" height="13">
  <path fill="#f7cd07" d="m13.31,5.04c0,-0.2 -0.15,-0.33 -0.44,-0.38l-4.02,-0.6l-1.8,-3.72c-0.1,-0.23 -0.23,-0.34 -0.39,-0.34c-0.16,0 -0.29,0.11 -0.4,0.34l-1.8,3.72l-4.01,0.6c-0.3,0.05 -0.45,0.18 -0.45,0.38c0,0.11 0.07,0.24 0.2,0.39l2.91,2.9l-0.69,4.1c-0.01,0.07 -0.01,0.13 -0.01,0.16c0,0.11 0.03,0.21 0.08,0.29c0.06,0.08 0.14,0.12 0.25,0.12c0.1,0 0.21,-0.03 0.32,-0.1l3.6,-1.93l3.59,1.93c0.11,0.07 0.22,0.1 0.32,0.1c0.11,0 0.19,-0.04 0.24,-0.12c0.06,-0.08 0.09,-0.18 0.09,-0.29c0,-0.07 0,-0.13 -0.01,-0.16l-0.69,-4.1l2.91" />
</svg>