<svg id="SvgjsSvg1000" xmlns="http://www.w3.org/2000/svg" version="1.1" xmlns:xlink="http://www.w3.org/1999/xlink" xmlns:svgjs="http://svgjs.com/svgjs" width="55" height="54" viewBox="0 0 55 54"><title>Forma 1</title><desc>Created with Avocode.</desc><defs id="SvgjsDefs1001"></defs><path id="SvgjsPath1007" d="M722.058 1126.01C722.611 1126.01 723.059 1126.46 723.059 1127.01C723.059 1127.56 722.611 1128 722.058 1128C721.505 1128 721.057 1127.56 721.057 1127.01C721.057 1126.46 721.505 1126.01 722.058 1126.01ZM686.029 1126.01C686.582 1126.01 687.03 1126.46 687.03 1127.01C687.03 1127.56 686.582 1128 686.029 1128C685.476 1128 685.028 1127.56 685.028 1127.01C685.028 1126.46 685.476 1126.01 686.029 1126.01ZM689.031 1129C689.584 1129 690.0319999999999 1129.44 690.0319999999999 1129.99C690.0319999999999 1130.54 689.584 1130.98 689.031 1130.98C688.4789999999999 1130.98 688.031 1130.54 688.031 1129.99C688.031 1129.44 688.4789999999999 1129 689.031 1129ZM695.036 1129C695.5889999999999 1129 696.0369999999999 1129.44 696.0369999999999 1129.99C696.0369999999999 1130.54 695.5889999999999 1130.98 695.036 1130.98C694.4839999999999 1130.98 694.036 1130.54 694.036 1129.99C694.036 1129.44 694.4839999999999 1129 695.036 1129ZM692.034 1131.98C692.587 1131.98 693.035 1132.42 693.035 1132.97C693.035 1133.52 692.587 1133.97 692.034 1133.97C691.481 1133.97 691.033 1133.52 691.033 1132.97C691.033 1132.42 691.481 1131.98 692.034 1131.98ZM698.039 1131.98C698.591 1131.98 699.04 1132.42 699.04 1132.97C699.04 1133.52 698.591 1133.97 698.039 1133.97C697.486 1133.97 697.038 1133.52 697.038 1132.97C697.038 1132.42 697.486 1131.98 698.039 1131.98ZM701.041 1134.96C701.594 1134.96 702.042 1135.41 702.042 1135.96C702.042 1136.51 701.594 1136.95 701.041 1136.95C700.488 1136.95 700.0400000000001 1136.51 700.0400000000001 1135.96C700.0400000000001 1135.41 700.488 1134.96 701.041 1134.96ZM707.046 1134.96C707.599 1134.96 708.047 1135.41 708.047 1135.96C708.047 1136.51 707.599 1136.95 707.046 1136.95C706.493 1136.95 706.0450000000001 1136.51 706.0450000000001 1135.96C706.0450000000001 1135.41 706.493 1134.96 707.046 1134.96ZM710.048 1131.98C710.601 1131.98 711.049 1132.42 711.049 1132.97C711.049 1133.52 710.601 1133.97 710.048 1133.97C709.496 1133.97 709.048 1133.52 709.048 1132.97C709.048 1132.42 709.496 1131.98 710.048 1131.98ZM704.044 1137.95C704.596 1137.95 705.044 1138.39 705.044 1138.94C705.044 1139.49 704.596 1139.94 704.044 1139.94C703.491 1139.94 703.043 1139.49 703.043 1138.94C703.043 1138.39 703.491 1137.95 704.044 1137.95ZM713.051 1129C713.604 1129 714.052 1129.44 714.052 1129.99C714.052 1130.54 713.604 1130.98 713.051 1130.98C712.498 1130.98 712.0500000000001 1130.54 712.0500000000001 1129.99C712.0500000000001 1129.44 712.498 1129 713.051 1129ZM719.056 1129C719.6080000000001 1129 720.057 1129.44 720.057 1129.99C720.057 1130.54 719.6080000000001 1130.98 719.056 1130.98C718.503 1130.98 718.0550000000001 1130.54 718.0550000000001 1129.99C718.0550000000001 1129.44 718.503 1129 719.056 1129ZM716.053 1131.98C716.606 1131.98 717.054 1132.42 717.054 1132.97C717.054 1133.52 716.606 1133.97 716.053 1133.97C715.501 1133.97 715.052 1133.52 715.052 1132.97C715.052 1132.42 715.501 1131.98 716.053 1131.98ZM722.597 1133.79L731.9979999999999 1128.45L722.334 1123L731.9979999999999 1117.51L704.4999999999999 1101.99L677.0009999999999 1117.51L686.6649999999998 1123L677.0009999999999 1128.45L686.6649999999998 1133.94L677.0009999999999 1139.39L704.4999999999999 1155L731.9989999999999 1139.39L722.3349999999999 1133.94L722.406 1133.9C722.476 1133.8700000000001 722.535 1133.8300000000002 722.597 1133.7900000000002ZM704.5 1104.28L727.955 1117.52L720.312 1121.86L704.501 1130.83L681.045 1117.52ZM688.139 1124.45C688.301 1124.78 688.636 1125.02 689.0310000000001 1125.02C689.302 1125.02 689.5440000000001 1124.91 689.724 1124.74L691.988 1126.02C691.4570000000001 1126.05 691.033 1126.47 691.033 1127.01C691.033 1127.56 691.481 1128 692.034 1128C692.586 1128 693.035 1127.56 693.035 1127.01C693.035 1126.83 692.98 1126.68 692.903 1126.54L703.241 1132.4099999999999C703.125 1132.57 703.043 1132.7599999999998 703.043 1132.9699999999998C703.043 1133.5199999999998 703.491 1133.9699999999998 704.044 1133.9699999999998C704.596 1133.9699999999998 705.044 1133.5199999999998 705.044 1132.9699999999998C705.044 1132.9199999999998 705.023 1132.8799999999999 705.015 1132.8299999999997L715.0749999999999 1127.1199999999997C715.1349999999999 1127.6099999999997 715.5409999999999 1127.9999999999998 716.0529999999999 1127.9999999999998C716.6059999999999 1127.9999999999998 717.0539999999999 1127.5499999999997 717.0539999999999 1127.0099999999998C717.0539999999999 1126.6799999999998 716.8889999999999 1126.4099999999999 716.6479999999999 1126.2299999999998L718.8509999999999 1124.9799999999998C718.9199999999998 1124.9899999999998 718.9839999999999 1125.0199999999998 719.0559999999999 1125.0199999999998C719.4999999999999 1125.0199999999998 719.8629999999999 1124.7199999999998 719.9939999999999 1124.3299999999997L720.3149999999999 1124.1399999999996L727.9549999999999 1128.4599999999996L725.9699999999999 1129.5799999999995C725.8129999999999 1129.2399999999996 725.4669999999999 1128.9899999999996 725.0609999999999 1128.9899999999996C724.5089999999999 1128.9899999999996 724.0609999999999 1129.4399999999996 724.0609999999999 1129.9899999999996C724.0609999999999 1130.1999999999996 724.1439999999999 1130.3899999999996 724.2599999999999 1130.5499999999995L720.3119999999999 1132.7999999999995L713.9179999999999 1136.4299999999996C713.9969999999998 1136.2799999999995 714.0529999999999 1136.1299999999997 714.0529999999999 1135.9599999999996C714.0529999999999 1135.4099999999996 713.6039999999999 1134.9599999999996 713.0519999999999 1134.9599999999996C712.4989999999999 1134.9599999999996 712.0509999999999 1135.4099999999996 712.0509999999999 1135.9599999999996C712.0509999999999 1136.4899999999996 712.477 1136.9199999999996 713.0089999999999 1136.9399999999996L710.7439999999999 1138.2299999999996C710.564 1138.0599999999995 710.3209999999999 1137.9499999999996 710.0489999999999 1137.9499999999996C709.4969999999998 1137.9499999999996 709.0489999999999 1138.3899999999996 709.0489999999999 1138.9399999999996C709.0489999999999 1139.0199999999995 709.0769999999999 1139.0899999999997 709.0949999999999 1139.1699999999996L704.5009999999999 1141.7699999999995L698.9789999999998 1138.6399999999994C698.8489999999998 1138.2399999999993 698.4849999999998 1137.9499999999994 698.0399999999998 1137.9499999999994C697.9669999999999 1137.9499999999994 697.9019999999998 1137.9699999999993 697.8339999999998 1137.9899999999993L695.6309999999999 1136.7399999999993C695.8719999999998 1136.5599999999993 696.0379999999999 1136.2799999999993 696.0379999999999 1135.9599999999994C696.0379999999999 1135.4099999999994 695.5899999999999 1134.9599999999994 695.0369999999999 1134.9599999999994C694.525 1134.9599999999994 694.1179999999999 1135.3499999999995 694.059 1135.8499999999995L683.997 1130.1299999999994C684.0039999999999 1130.0799999999995 684.026 1130.0399999999995 684.026 1129.9899999999993C684.026 1129.4399999999994 683.578 1128.9999999999993 683.026 1128.9999999999993C682.786 1128.9999999999993 682.5759999999999 1129.0899999999992 682.404 1129.2299999999993L681.044 1128.4599999999994ZM727.954 1139.4L704.4989999999999 1152.71L681.045 1139.4L688.684 1135.0900000000001L704.5 1144.0600000000002L720.315 1135.0900000000001Z " fill="#000000" fill-opacity="1" transform="matrix(1,0,0,1,-677,-1101)"></path></svg>