<?xml version="1.0" encoding="UTF-8"?>
<svg width="189px" height="107px" viewBox="0 0 189 107" version="1.1" xmlns="http://www.w3.org/2000/svg" xmlns:xlink="http://www.w3.org/1999/xlink">
    <!-- Generator: Sketch 42 (36781) - http://www.bohemiancoding.com/sketch -->
    <title>лого ПА-3 (1)</title>
    <desc>Created with Sketch.</desc>
    <defs></defs>
    <g id="Page-1" stroke="none" stroke-width="1" fill="none" fill-rule="evenodd">
        <g id="лого-ПА-3-(1)">
            <polygon id="Fill-1" fill="#4ABBC7" points="48.2679 11.8427 48.2679 94.3407 35.5449 94.3407 35.5449 8.0657"></polygon>
            <polygon id="Fill-2" fill="#7F837F" points="27.5052 19.5955 27.5052 94.3405 16.7702 94.3405 16.7702 16.8125"></polygon>
            <polygon id="Fill-3" fill="#B3B4AF" points="9.4225 26.9508 9.4225 94.3408 0.6755 94.3408 0.6755 24.5658"></polygon>
            <polygon id="Fill-4" fill="#DE502A" points="112.0449 83.0095 69.9009 80.4255 69.9009 19.3965 112.0449 31.5225 112.0449 35.7935 119.7979 35.7935 119.7979 21.5835 56.9799 0.1135 56.9799 94.3405 119.7979 94.3405 119.7979 77.3255 112.0449 77.3255"></polygon>
            <polygon id="Fill-5" fill="#4ABBC7" points="76.6701 40.6574 87.1561 40.6574 87.1561 53.8414 84.4941 53.8414 84.4941 42.8694 79.3321 42.8694 79.3321 53.8414 76.6701 53.8414"></polygon>
            <g id="Group-66" transform="translate(0.000000, 40.000000)">
                <path d="M92.1974,0.6574 L101.4334,0.6574 L101.4334,13.8414 L98.7714,13.8414 L98.7714,2.8874 L94.8054,2.8874 L94.8054,8.5174 C94.8054,10.1304 94.7514,11.2554 94.6434,11.8944 C94.5354,12.5324 94.2734,13.0304 93.8564,13.3874 C93.4404,13.7434 92.7884,13.9224 91.9004,13.9224 C91.5884,13.9224 91.0224,13.8924 90.2014,13.8324 L90.2014,11.7724 L90.7944,11.7814 C91.3524,11.7814 91.7264,11.7074 91.9184,11.5574 C92.1104,11.4074 92.2064,11.0384 92.2064,10.4504 L92.1974,8.1844 L92.1974,0.6574 Z" id="Fill-6" fill="#4ABBC7"></path>
                <path d="M112.545,8.6253 L110.728,3.7333 L108.948,8.6253 L112.545,8.6253 Z M117.446,13.8413 L114.55,13.8413 L113.399,10.8463 L108.129,10.8463 L107.041,13.8413 L104.217,13.8413 L109.352,0.6573 L112.167,0.6573 L117.446,13.8413 Z" id="Fill-8" fill="#4ABBC7"></path>
                <path d="M128.217,8.994 L130.798,9.812 C130.402,11.251 129.744,12.32 128.824,13.018 C127.904,13.717 126.736,14.066 125.321,14.066 C123.571,14.066 122.132,13.468 121.005,12.272 C119.877,11.076 119.314,9.441 119.314,7.366 C119.314,5.172 119.88,3.468 121.014,2.254 C122.147,1.04 123.637,0.433 125.483,0.433 C127.096,0.433 128.406,0.909 129.413,1.862 C130.013,2.426 130.462,3.235 130.762,4.291 L128.127,4.92 C127.971,4.237 127.646,3.697 127.151,3.301 C126.657,2.906 126.056,2.708 125.348,2.708 C124.371,2.708 123.578,3.059 122.97,3.76 C122.361,4.461 122.057,5.598 122.057,7.168 C122.057,8.835 122.356,10.022 122.956,10.73 C123.556,11.437 124.335,11.791 125.294,11.791 C126.002,11.791 126.61,11.566 127.12,11.116 C127.629,10.667 127.995,9.959 128.217,8.994" id="Fill-10" fill="#4ABBC7"></path>
                <polygon id="Fill-12" fill="#4ABBC7" points="136.9725 13.8413 136.9725 2.8873 133.0605 2.8873 133.0605 0.6573 143.5375 0.6573 143.5375 2.8873 139.6345 2.8873 139.6345 13.8413"></polygon>
                <polygon id="Fill-14" fill="#4ABBC7" points="146.6723 0.6574 149.1633 0.6574 149.1633 9.4344 154.5053 0.6574 157.1583 0.6574 157.1583 13.8414 154.6673 13.8414 154.6673 5.2344 149.3343 13.8414 146.6723 13.8414"></polygon>
                <path d="M161.3003,0.6574 L163.9623,0.6574 L163.9623,6.2694 C164.5553,6.2094 164.9573,6.0564 165.1673,5.8104 C165.3773,5.5644 165.7013,4.8814 166.1383,3.7604 C166.6903,2.3334 167.2443,1.4454 167.8023,1.0984 C168.3543,0.7504 169.2443,0.5764 170.4733,0.5764 C170.5333,0.5764 170.6623,0.5734 170.8603,0.5674 L170.8603,2.5374 L170.4823,2.5284 C169.9363,2.5284 169.5383,2.5954 169.2863,2.7304 C169.0343,2.8654 168.8303,3.0704 168.6743,3.3464 C168.5183,3.6224 168.2883,4.1884 167.9823,5.0464 C167.8203,5.5014 167.6453,5.8824 167.4563,6.1884 C167.2673,6.4944 166.9333,6.7814 166.4533,7.0514 C167.0473,7.2194 167.5373,7.5584 167.9233,8.0674 C168.3103,8.5774 168.7343,9.2964 169.1963,10.2264 L170.9953,13.8414 L167.8653,13.8414 L166.2913,10.4324 C166.2673,10.3854 166.2163,10.2924 166.1383,10.1544 C166.1083,10.1064 165.9973,9.8994 165.8063,9.5334 C165.4643,8.8864 165.1843,8.4814 164.9653,8.3194 C164.7463,8.1574 164.4123,8.0734 163.9623,8.0674 L163.9623,13.8414 L161.3003,13.8414 L161.3003,0.6574 Z" id="Fill-16" fill="#4ABBC7"></path>
                <polygon id="Fill-18" fill="#7F837F" points="177.2308 0.8823 179.7218 0.8823 179.7218 9.6593 185.0638 0.8823 187.7168 0.8823 187.7168 14.0663 185.2258 14.0663 185.2258 5.4593 179.8928 14.0663 177.2308 14.0663"></polygon>
                <path d="M83.6217,26.0751 L81.8047,21.1831 L80.0247,26.0751 L83.6217,26.0751 Z M88.5227,31.2911 L85.6267,31.2911 L84.4757,28.2961 L79.2057,28.2961 L78.1177,31.2911 L75.2937,31.2911 L80.4287,18.1071 L83.2437,18.1071 L88.5227,31.2911 Z" id="Fill-20" fill="#DE502A"></path>
                <path d="M91.104,18.1072 L100.34,18.1072 L100.34,31.2912 L97.678,31.2912 L97.678,20.3372 L93.712,20.3372 L93.712,25.9672 C93.712,27.5802 93.658,28.7052 93.55,29.3442 C93.442,29.9822 93.18,30.4802 92.763,30.8372 C92.347,31.1932 91.695,31.3722 90.807,31.3722 C90.495,31.3722 89.929,31.3422 89.108,31.2822 L89.108,29.2222 L89.701,29.2312 C90.259,29.2312 90.633,29.1572 90.825,29.0072 C91.017,28.8572 91.113,28.4882 91.113,27.9002 L91.104,25.6342 L91.104,18.1072 Z" id="Fill-22" fill="#DE502A"></path>
                <path d="M110.556,24.7171 C110.556,26.1801 110.847,27.3091 111.428,28.1031 C112.01,28.8971 112.828,29.2941 113.883,29.2941 C114.969,29.2941 115.782,28.9001 116.325,28.1121 C116.868,27.3231 117.139,26.1411 117.139,24.5641 C117.139,23.0531 116.826,21.9471 116.199,21.2461 C115.573,20.5441 114.771,20.1931 113.794,20.1931 C112.84,20.1931 112.062,20.5491 111.46,21.2591 C110.857,21.9701 110.556,23.1221 110.556,24.7171 L110.556,24.7171 Z M103.092,18.1071 L105.754,18.1071 L105.754,23.6111 L107.894,23.6111 C108.05,21.9861 108.622,20.6251 109.612,19.5281 C110.601,18.4311 112.04,17.8821 113.928,17.8821 C115.745,17.8821 117.19,18.4701 118.263,19.6451 C119.336,20.8201 119.873,22.4991 119.873,24.6811 C119.873,26.1081 119.639,27.3261 119.171,28.3371 C118.704,29.3471 118.043,30.1291 117.188,30.6841 C116.334,31.2381 115.271,31.5161 114,31.5161 C112.705,31.5161 111.676,31.3121 110.911,30.9041 C110.147,30.4971 109.478,29.8371 108.906,28.9261 C108.333,28.0141 107.996,26.9801 107.894,25.8231 L105.754,25.8231 L105.754,31.2911 L103.092,31.2911 L103.092,18.1071 Z" id="Fill-24" fill="#DE502A"></path>
                <polygon id="Fill-26" fill="#DE502A" points="122.0402 31.2911 122.0402 18.1071 126.0242 18.1071 128.4162 27.1001 130.7812 18.1071 134.7742 18.1071 134.7742 31.2911 132.3012 31.2911 132.3012 20.9131 129.6842 31.2911 127.1212 31.2911 124.5132 20.9131 124.5132 31.2911"></polygon>
                <polygon id="Fill-28" fill="#DE502A" points="137.4544 18.1072 139.9454 18.1072 139.9454 26.8842 145.2874 18.1072 147.9404 18.1072 147.9404 31.2912 145.4494 31.2912 145.4494 22.6842 140.1164 31.2912 137.4544 31.2912"></polygon>
                <polygon id="Fill-30" fill="#DE502A" points="150.6652 31.2911 150.6652 18.1071 153.3272 18.1071 153.3272 23.2961 158.5432 23.2961 158.5432 18.1071 161.2052 18.1071 161.2052 31.2911 158.5432 31.2911 158.5432 25.5261 153.3272 25.5261 153.3272 31.2911"></polygon>
                <polygon id="Fill-32" fill="#DE502A" points="163.993 18.1072 166.484 18.1072 166.484 26.8842 171.826 18.1072 174.479 18.1072 174.479 31.2912 171.988 31.2912 171.988 22.6842 166.655 31.2912 163.993 31.2912"></polygon>
                <polygon id="Fill-34" fill="#DE502A" points="177.2308 18.1072 179.7218 18.1072 179.7218 26.8842 185.0638 18.1072 187.7168 18.1072 187.7168 31.2912 185.2258 31.2912 185.2258 22.6842 179.8928 31.2912 177.2308 31.2912"></polygon>
                <path d="M1.7382,63.1358 C1.7382,64.0888 1.9462,64.8018 2.3642,65.2758 C2.7822,65.7498 3.3062,65.9868 3.9392,65.9868 C4.5672,65.9868 5.0902,65.7498 5.5062,65.2728 C5.9242,64.7958 6.1322,64.0698 6.1322,63.0938 C6.1322,62.1728 5.9222,61.4758 5.5022,61.0008 C5.0832,60.5268 4.5622,60.2898 3.9392,60.2898 C3.3062,60.2898 2.7822,60.5248 2.3642,60.9968 C1.9462,61.4688 1.7382,62.1818 1.7382,63.1358 M0.4392,63.1358 C0.4392,61.7568 0.8232,60.7368 1.5912,60.0718 C2.2322,59.5218 3.0152,59.2458 3.9392,59.2458 C4.9642,59.2458 5.8042,59.5808 6.4552,60.2508 C7.1062,60.9208 7.4332,61.8478 7.4332,63.0288 C7.4332,63.9888 7.2892,64.7418 7.0002,65.2898 C6.7122,65.8398 6.2932,66.2658 5.7412,66.5688 C5.1912,66.8728 4.5902,67.0238 3.9392,67.0238 C2.8942,67.0238 2.0492,66.6908 1.4052,66.0218 C0.7602,65.3538 0.4392,64.3908 0.4392,63.1358" id="Fill-36" fill="#7F837F"></path>
                <path d="M13.5382,59.4137 L14.8042,59.4137 L14.8042,62.6297 C15.2062,62.6297 15.4892,62.5537 15.6492,62.3997 C15.8122,62.2457 16.0492,61.7957 16.3632,61.0527 C16.6122,60.4647 16.8132,60.0767 16.9672,59.8907 C17.1232,59.7027 17.3012,59.5777 17.5022,59.5117 C17.7032,59.4457 18.0272,59.4137 18.4732,59.4137 L18.7252,59.4137 L18.7252,60.4577 L18.3732,60.4507 C18.0422,60.4507 17.8292,60.4997 17.7342,60.5977 C17.6362,60.7017 17.4852,61.0077 17.2842,61.5167 C17.0932,62.0027 16.9172,62.3387 16.7582,62.5247 C16.5992,62.7127 16.3522,62.8817 16.0182,63.0377 C16.5632,63.1817 17.0982,63.6857 17.6222,64.5507 L19.0062,66.8567 L17.6152,66.8567 L16.2652,64.5507 C15.9882,64.0887 15.7482,63.7837 15.5412,63.6367 C15.3352,63.4897 15.0892,63.4147 14.8042,63.4147 L14.8042,66.8567 L13.5382,66.8567 L13.5382,59.4137 Z" id="Fill-38" fill="#7F837F"></path>
                <path d="M25.4634,63.1358 C25.4634,64.0888 25.6714,64.8018 26.0894,65.2758 C26.5074,65.7498 27.0314,65.9868 27.6644,65.9868 C28.2924,65.9868 28.8154,65.7498 29.2314,65.2728 C29.6494,64.7958 29.8574,64.0698 29.8574,63.0938 C29.8574,62.1728 29.6474,61.4758 29.2274,61.0008 C28.8084,60.5268 28.2874,60.2898 27.6644,60.2898 C27.0314,60.2898 26.5074,60.5248 26.0894,60.9968 C25.6714,61.4688 25.4634,62.1818 25.4634,63.1358 M24.1644,63.1358 C24.1644,61.7568 24.5484,60.7368 25.3164,60.0718 C25.9574,59.5218 26.7404,59.2458 27.6644,59.2458 C28.6894,59.2458 29.5294,59.5808 30.1804,60.2508 C30.8314,60.9208 31.1584,61.8478 31.1584,63.0288 C31.1584,63.9888 31.0144,64.7418 30.7254,65.2898 C30.4374,65.8398 30.0184,66.2658 29.4664,66.5688 C28.9164,66.8728 28.3164,67.0238 27.6644,67.0238 C26.6194,67.0238 25.7744,66.6908 25.1304,66.0218 C24.4854,65.3538 24.1644,64.3908 24.1644,63.1358" id="Fill-40" fill="#7F837F"></path>
                <polygon id="Fill-42" fill="#7F837F" points="37.2769 59.4137 38.5429 59.4137 38.5429 62.5117 42.0499 62.5117 42.0499 59.4137 43.3149 59.4137 43.3149 66.8567 42.0499 66.8567 42.0499 63.5557 38.5429 63.5557 38.5429 66.8567 37.2769 66.8567"></polygon>
                <polygon id="Fill-44" fill="#7F837F" points="49.8569 59.4137 51.1229 59.4137 51.1229 62.5117 54.6299 62.5117 54.6299 59.4137 55.8949 59.4137 55.8949 66.8567 54.6299 66.8567 54.6299 63.5557 51.1229 63.5557 51.1229 66.8567 49.8569 66.8567"></polygon>
                <path d="M67.196,63.1206 C66.738,63.3086 66.047,63.4676 65.129,63.5976 C64.609,63.6726 64.24,63.7566 64.025,63.8496 C63.811,63.9426 63.643,64.0796 63.526,64.2596 C63.41,64.4406 63.35,64.6396 63.35,64.8596 C63.35,65.1946 63.479,65.4756 63.734,65.7006 C63.99,65.9236 64.364,66.0356 64.854,66.0356 C65.342,66.0356 65.777,65.9306 66.156,65.7176 C66.534,65.5046 66.814,65.2136 66.993,64.8446 C67.128,64.5606 67.196,64.1396 67.196,63.5846 L67.196,63.1206 Z M67.301,65.9376 C66.832,66.3356 66.382,66.6156 65.949,66.7786 C65.514,66.9426 65.049,67.0236 64.553,67.0236 C63.733,67.0236 63.102,66.8246 62.662,66.4246 C62.222,66.0256 62,65.5166 62,64.8936 C62,64.5296 62.085,64.1966 62.251,63.8956 C62.416,63.5946 62.635,63.3526 62.904,63.1696 C63.174,62.9886 63.477,62.8496 63.814,62.7566 C64.063,62.6906 64.438,62.6286 64.939,62.5676 C65.961,62.4456 66.714,62.3016 67.196,62.1326 C67.201,61.9596 67.203,61.8496 67.203,61.8046 C67.203,61.2896 67.084,60.9276 66.844,60.7186 C66.521,60.4326 66.04,60.2896 65.403,60.2896 C64.809,60.2896 64.369,60.3936 64.085,60.6016 C63.802,60.8096 63.592,61.1786 63.457,61.7066 L62.219,61.5366 C62.332,61.0096 62.516,60.5826 62.775,60.2576 C63.032,59.9326 63.405,59.6846 63.892,59.5086 C64.379,59.3326 64.944,59.2466 65.587,59.2466 C66.223,59.2466 66.741,59.3206 67.14,59.4696 C67.538,59.6206 67.83,59.8076 68.018,60.0346 C68.206,60.2616 68.336,60.5476 68.412,60.8926 C68.455,61.1076 68.475,61.4946 68.475,62.0566 L68.475,63.7386 C68.475,64.9106 68.502,65.6516 68.556,65.9626 C68.61,66.2746 68.717,66.5716 68.876,66.8566 L67.555,66.8566 C67.423,66.5936 67.338,66.2876 67.301,65.9376 L67.301,65.9376 Z" id="Fill-46" fill="#7F837F"></path>
                <path d="M79.6863,60.4576 L77.8863,60.4576 C77.1313,60.4576 76.6463,60.5746 76.4273,60.8076 C76.2093,61.0426 76.1013,61.3156 76.1013,61.6286 C76.1013,62.0716 76.2623,62.3986 76.5813,62.6066 C76.9033,62.8146 77.4713,62.9176 78.2873,62.9176 L79.6863,62.9176 L79.6863,60.4576 Z M80.9453,59.4136 L80.9453,66.8566 L79.6863,66.8566 L79.6863,63.9546 L78.9553,63.9546 C78.5083,63.9546 78.1793,64.0126 77.9603,64.1276 C77.7423,64.2406 77.4243,64.6096 77.0083,65.2306 L75.9033,66.8566 L74.3363,66.8566 L75.7003,64.8516 C76.1163,64.2406 76.5323,63.8936 76.9433,63.8146 C76.2233,63.7166 75.6863,63.4576 75.3383,63.0376 C74.9893,62.6166 74.8133,62.1326 74.8133,61.5856 C74.8133,60.9416 75.0423,60.4186 75.4993,60.0156 C75.9573,59.6146 76.6193,59.4136 77.4853,59.4136 L80.9453,59.4136 Z" id="Fill-48" fill="#7F837F"></path>
                <path d="M94.3002,59.4137 L95.5662,59.4137 L95.5662,62.6297 C95.9682,62.6297 96.2512,62.5537 96.4112,62.3997 C96.5742,62.2457 96.8112,61.7957 97.1252,61.0527 C97.3742,60.4647 97.5752,60.0767 97.7292,59.8907 C97.8852,59.7027 98.0632,59.5777 98.2642,59.5117 C98.4652,59.4457 98.7892,59.4137 99.2352,59.4137 L99.4872,59.4137 L99.4872,60.4577 L99.1352,60.4507 C98.8042,60.4507 98.5912,60.4997 98.4962,60.5977 C98.3982,60.7017 98.2472,61.0077 98.0462,61.5167 C97.8552,62.0027 97.6792,62.3387 97.5202,62.5247 C97.3612,62.7127 97.1142,62.8817 96.7802,63.0377 C97.3252,63.1817 97.8602,63.6857 98.3842,64.5507 L99.7682,66.8567 L98.3772,66.8567 L97.0272,64.5507 C96.7502,64.0887 96.5102,63.7837 96.3032,63.6367 C96.0972,63.4897 95.8512,63.4147 95.5662,63.4147 L95.5662,66.8567 L94.3002,66.8567 L94.3002,59.4137 Z" id="Fill-50" fill="#7F837F"></path>
                <path d="M106.2254,63.1358 C106.2254,64.0888 106.4334,64.8018 106.8514,65.2758 C107.2694,65.7498 107.7934,65.9868 108.4264,65.9868 C109.0544,65.9868 109.5774,65.7498 109.9934,65.2728 C110.4114,64.7958 110.6194,64.0698 110.6194,63.0938 C110.6194,62.1728 110.4094,61.4758 109.9894,61.0008 C109.5704,60.5268 109.0494,60.2898 108.4264,60.2898 C107.7934,60.2898 107.2694,60.5248 106.8514,60.9968 C106.4334,61.4688 106.2254,62.1818 106.2254,63.1358 M104.9264,63.1358 C104.9264,61.7568 105.3104,60.7368 106.0784,60.0718 C106.7194,59.5218 107.5024,59.2458 108.4264,59.2458 C109.4514,59.2458 110.2914,59.5808 110.9424,60.2508 C111.5934,60.9208 111.9204,61.8478 111.9204,63.0288 C111.9204,63.9888 111.7764,64.7418 111.4874,65.2898 C111.1994,65.8398 110.7804,66.2658 110.2284,66.5688 C109.6784,66.8728 109.0774,67.0238 108.4264,67.0238 C107.3814,67.0238 106.5364,66.6908 105.8924,66.0218 C105.2474,65.3538 104.9264,64.3908 104.9264,63.1358" id="Fill-52" fill="#7F837F"></path>
                <polygon id="Fill-54" fill="#7F837F" points="118.0676 59.4137 120.0356 59.4137 121.9966 65.3707 124.1756 59.4137 125.9976 59.4137 125.9976 66.8567 124.7316 66.8567 124.7316 60.8657 122.5236 66.8567 121.3926 66.8567 119.3046 60.5777 119.3046 66.8567 118.0676 66.8567"></polygon>
                <polygon id="Fill-56" fill="#7F837F" points="132.5662 59.4137 138.4572 59.4137 138.4572 66.8567 137.1922 66.8567 137.1922 60.4577 133.8322 60.4577 133.8322 66.8567 132.5662 66.8567"></polygon>
                <path d="M149.7514,63.1206 C149.2934,63.3086 148.6024,63.4676 147.6844,63.5976 C147.1644,63.6726 146.7954,63.7566 146.5804,63.8496 C146.3664,63.9426 146.1984,64.0796 146.0814,64.2596 C145.9654,64.4406 145.9054,64.6396 145.9054,64.8596 C145.9054,65.1946 146.0344,65.4756 146.2894,65.7006 C146.5454,65.9236 146.9194,66.0356 147.4094,66.0356 C147.8974,66.0356 148.3324,65.9306 148.7114,65.7176 C149.0894,65.5046 149.3694,65.2136 149.5484,64.8446 C149.6834,64.5606 149.7514,64.1396 149.7514,63.5846 L149.7514,63.1206 Z M149.8564,65.9376 C149.3874,66.3356 148.9374,66.6156 148.5044,66.7786 C148.0694,66.9426 147.6044,67.0236 147.1084,67.0236 C146.2884,67.0236 145.6574,66.8246 145.2174,66.4246 C144.7774,66.0256 144.5554,65.5166 144.5554,64.8936 C144.5554,64.5296 144.6404,64.1966 144.8064,63.8956 C144.9714,63.5946 145.1904,63.3526 145.4594,63.1696 C145.7294,62.9886 146.0324,62.8496 146.3694,62.7566 C146.6184,62.6906 146.9934,62.6286 147.4944,62.5676 C148.5164,62.4456 149.2694,62.3016 149.7514,62.1326 C149.7564,61.9596 149.7584,61.8496 149.7584,61.8046 C149.7584,61.2896 149.6394,60.9276 149.3994,60.7186 C149.0764,60.4326 148.5954,60.2896 147.9584,60.2896 C147.3644,60.2896 146.9244,60.3936 146.6404,60.6016 C146.3574,60.8096 146.1474,61.1786 146.0124,61.7066 L144.7744,61.5366 C144.8874,61.0096 145.0714,60.5826 145.3304,60.2576 C145.5874,59.9326 145.9604,59.6846 146.4474,59.5086 C146.9344,59.3326 147.4994,59.2466 148.1424,59.2466 C148.7784,59.2466 149.2964,59.3206 149.6954,59.4696 C150.0934,59.6206 150.3854,59.8076 150.5734,60.0346 C150.7614,60.2616 150.8914,60.5476 150.9674,60.8926 C151.0104,61.1076 151.0304,61.4946 151.0304,62.0566 L151.0304,63.7386 C151.0304,64.9106 151.0574,65.6516 151.1114,65.9626 C151.1654,66.2746 151.2724,66.5716 151.4314,66.8566 L150.1104,66.8566 C149.9784,66.5936 149.8934,66.2876 149.8564,65.9376 L149.8564,65.9376 Z" id="Fill-58" fill="#7F837F"></path>
                <polygon id="Fill-60" fill="#7F837F" points="157.6279 59.4137 158.8939 59.4137 158.8939 62.5117 162.4009 62.5117 162.4009 59.4137 163.6659 59.4137 163.6659 66.8567 162.4009 66.8567 162.4009 63.5557 158.8939 63.5557 158.8939 66.8567 157.6279 66.8567"></polygon>
                <polygon id="Fill-62" fill="#7F837F" points="170.2011 59.4137 171.4671 59.4137 171.4671 65.0897 174.9741 59.4137 176.3371 59.4137 176.3371 66.8567 175.0721 66.8567 175.0721 61.2157 171.5651 66.8567 170.2011 66.8567"></polygon>
                <path d="M187.4912,60.4576 L185.6912,60.4576 C184.9362,60.4576 184.4512,60.5746 184.2322,60.8076 C184.0142,61.0426 183.9062,61.3156 183.9062,61.6286 C183.9062,62.0716 184.0672,62.3986 184.3862,62.6066 C184.7082,62.8146 185.2762,62.9176 186.0922,62.9176 L187.4912,62.9176 L187.4912,60.4576 Z M188.7502,59.4136 L188.7502,66.8566 L187.4912,66.8566 L187.4912,63.9546 L186.7602,63.9546 C186.3132,63.9546 185.9842,64.0126 185.7652,64.1276 C185.5472,64.2406 185.2292,64.6096 184.8132,65.2306 L183.7082,66.8566 L182.1412,66.8566 L183.5052,64.8516 C183.9212,64.2406 184.3372,63.8936 184.7482,63.8146 C184.0282,63.7166 183.4912,63.4576 183.1432,63.0376 C182.7942,62.6166 182.6182,62.1326 182.6182,61.5856 C182.6182,60.9416 182.8472,60.4186 183.3042,60.0156 C183.7622,59.6146 184.4242,59.4136 185.2902,59.4136 L188.7502,59.4136 Z" id="Fill-64" fill="#7F837F"></path>
            </g>
        </g>
    </g>
</svg>