<svg id="SvgjsSvg1008" xmlns="http://www.w3.org/2000/svg" version="1.1" xmlns:xlink="http://www.w3.org/1999/xlink" xmlns:svgjs="http://svgjs.com/svgjs" width="49" height="59" viewBox="0 0 49 59"><title>Shape 1</title><desc>Created with Avocode.</desc><defs id="SvgjsDefs1009"></defs><path id="SvgjsPath1010" d="M698.863 1219.89C698.355 1219.89 697.9430000000001 1220.3000000000002 697.9430000000001 1220.8200000000002V1223.9500000000003C697.9430000000001 1224.4600000000003 698.3550000000001 1224.8800000000003 698.863 1224.8800000000003C699.3710000000001 1224.8800000000003 699.783 1224.4600000000003 699.783 1223.9500000000003V1220.8200000000002C699.783 1220.3000000000002 699.371 1219.89 698.863 1219.89ZM703.991 1223.93C703.484 1223.93 703.072 1224.3500000000001 703.072 1224.8600000000001V1230.0500000000002C703.072 1230.5600000000002 703.484 1230.9800000000002 703.991 1230.9800000000002C704.499 1230.9800000000002 704.911 1230.5600000000002 704.911 1230.0500000000002V1224.8600000000001C704.911 1224.3500000000001 704.4989999999999 1223.93 703.991 1223.93ZM725.991 1235.2C725.555 1231.06 722.108 1227.94 717.973 1227.94H715.107C713.462 1226.55 711.4639999999999 1225.72 709.3249999999999 1225.53V1217.79H711.483C718.3649999999999 1217.79 723.963 1212.1499999999999 723.963 1205.2C723.963 1203.5800000000002 723.663 1202.01 723.0709999999999 1200.52C724.2189999999999 1198.61 724.824 1196.43 724.824 1194.17C724.824 1187.41 719.366 1181.9 712.6579999999999 1181.9C711.9979999999999 1181.9 711.3369999999999 1181.96 710.6869999999999 1182.0600000000002C708.3779999999999 1179.4700000000003 705.1129999999999 1178.0000000000002 701.6439999999999 1178.0000000000002C698.1749999999998 1178.0000000000002 694.9099999999999 1179.4700000000003 692.6009999999999 1182.0600000000002C691.9499999999999 1181.9600000000003 691.2899999999998 1181.9 690.6289999999999 1181.9C683.9209999999999 1181.9 678.4629999999999 1187.41 678.4629999999999 1194.17C678.4629999999999 1196.43 679.0679999999999 1198.6100000000001 680.2159999999999 1200.52C679.6239999999999 1202.01 679.3239999999998 1203.58 679.3239999999998 1205.2C679.3239999999998 1212.15 684.9229999999999 1217.79 691.8049999999998 1217.79C692.5359999999998 1217.79 693.2559999999999 1217.73 693.9629999999999 1217.61V1228.4799999999998C692.5629999999999 1227.5899999999997 690.9429999999999 1227.11 689.2549999999999 1227.11C686.6089999999999 1227.11 684.0819999999999 1228.32 682.4029999999999 1230.37C679.7249999999999 1230.4599999999998 677.4789999999999 1232.4199999999998 677.0239999999999 1235.1C676.9429999999999 1235.58 677.0719999999999 1236.06 677.3789999999999 1236.4299999999998C677.6839999999999 1236.7899999999997 678.1289999999999 1236.9999999999998 678.6009999999999 1236.9999999999998H724.3989999999999C724.8509999999999 1236.9999999999998 725.2839999999999 1236.8099999999997 725.5869999999999 1236.4699999999998C725.8919999999998 1236.12 726.0389999999999 1235.6599999999999 725.9909999999999 1235.1999999999998ZM691.805 1215.94C685.9369999999999 1215.94 681.1629999999999 1211.1200000000001 681.1629999999999 1205.2C681.1629999999999 1203.68 681.4749999999999 1202.2 682.0899999999999 1200.82C682.2189999999999 1200.53 682.1919999999999 1200.1899999999998 682.0179999999999 1199.9199999999998C680.896 1198.2199999999998 680.3029999999999 1196.2299999999998 680.3029999999999 1194.1699999999998C680.3029999999999 1188.4299999999998 684.9349999999998 1183.7599999999998 690.6289999999999 1183.7599999999998C691.3469999999999 1183.7599999999998 692.0649999999999 1183.8299999999997 692.7639999999999 1183.9799999999998C693.0979999999998 1184.0499999999997 693.4449999999999 1183.9299999999998 693.6629999999999 1183.6599999999999C695.6339999999999 1181.2399999999998 698.5429999999999 1179.86 701.6439999999999 1179.86C704.7439999999999 1179.86 707.6529999999999 1181.24 709.6249999999999 1183.6599999999999C709.8419999999999 1183.9299999999998 710.1889999999999 1184.05 710.5239999999999 1183.9799999999998C711.2229999999998 1183.8299999999997 711.9399999999999 1183.7599999999998 712.6579999999999 1183.7599999999998C718.3519999999999 1183.7599999999998 722.9849999999999 1188.4299999999998 722.9849999999999 1194.1699999999998C722.9849999999999 1196.2299999999998 722.3919999999999 1198.2199999999998 721.2699999999999 1199.9199999999998C721.0959999999999 1200.1899999999998 721.0679999999999 1200.5299999999997 721.1969999999999 1200.82C721.8119999999999 1202.2 722.1239999999999 1203.6799999999998 722.1239999999999 1205.2C722.1239999999999 1211.1200000000001 717.3499999999999 1215.94 711.483 1215.94C709.829 1215.94 708.2429999999999 1215.5700000000002 706.77 1214.8300000000002C706.6419999999999 1214.7700000000002 706.5029999999999 1214.7300000000002 706.362 1214.7300000000002C706.276 1214.7300000000002 706.1899999999999 1214.7500000000002 706.105 1214.7700000000002C704.6610000000001 1215.2000000000003 703.159 1215.4100000000003 701.644 1215.4100000000003C700.128 1215.4100000000003 698.627 1215.2000000000003 697.182 1214.7700000000002C696.961 1214.7100000000003 696.724 1214.7300000000002 696.517 1214.8300000000002C695.0440000000001 1215.5700000000002 693.4590000000001 1215.94 691.8050000000001 1215.94ZM682.593 1232.23C682.6619999999999 1232.23 682.731 1232.23 682.799 1232.23C683.107 1232.25 683.404 1232.1100000000001 683.588 1231.8600000000001C684.9119999999999 1230.0500000000002 687.03 1228.97 689.255 1228.97C691.103 1228.97 692.85 1229.69 694.174 1230.99C694.394 1231.21 694.708 1231.3 695.01 1231.24C695.352 1231.16 695.702 1231.1200000000001 696.048 1231.1200000000001C698.439 1231.1200000000001 700.436 1232.8600000000001 700.868 1235.14H678.892C679.3080000000001 1233.44 680.8230000000001 1232.23 682.5930000000001 1232.23ZM702.729 1235.14C702.279 1231.8300000000002 699.456 1229.2700000000002 696.0490000000001 1229.2700000000002C695.9660000000001 1229.2700000000002 695.8840000000001 1229.2700000000002 695.8020000000001 1229.2700000000002V1217.13C696.2100000000002 1216.99 696.6130000000002 1216.8300000000002 697.0090000000001 1216.65C698.5160000000001 1217.0600000000002 700.0730000000001 1217.27 701.6440000000001 1217.27C703.2140000000002 1217.27 704.7710000000001 1217.06 706.2780000000001 1216.65C706.6740000000001 1216.8300000000002 707.0770000000001 1217 707.4850000000001 1217.13V1235.14ZM709.325 1227.4C711.346 1227.6100000000001 713.207 1228.5300000000002 714.6400000000001 1230.0300000000002C714.9000000000001 1230.3000000000002 715.2990000000001 1230.39 715.647 1230.2500000000002C716.389 1229.9500000000003 717.171 1229.7900000000002 717.9730000000001 1229.7900000000002C721.0790000000001 1229.7900000000002 723.682 1232.0800000000002 724.1300000000001 1235.14H709.3250000000002Z " fill="#000000" fill-opacity="1" transform="matrix(1,0,0,1,-677,-1178)"></path></svg>